Coordinates
version=1
nRows=5
nColumns=40
inDegrees=yes

Units are S.I. units (second, meters, Newtons, ...)
Angles are in degrees.

endheader
time	pelvis_tilt	pelvis_list	pelvis_rotation	pelvis_tx	pelvis_ty	pelvis_tz	hip_flexion_r	hip_adduction_r	hip_rotation_r	knee_angle_r	knee_angle_r_beta	ankle_angle_r	subtalar_angle_r	mtp_angle_r	hip_flexion_l	hip_adduction_l	hip_rotation_l	knee_angle_l	knee_angle_l_beta	ankle_angle_l	subtalar_angle_l	mtp_angle_l	lumbar_extension	lumbar_bending	lumbar_rotation	arm_flex_r	arm_add_r	arm_rot_r	elbow_flex_r	pro_sup_r	wrist_flex_r	wrist_dev_r	arm_flex_l	arm_add_l	arm_rot_l	elbow_flex_l	pro_sup_l	wrist_flex_l	wrist_dev_l
     26.82042857	     -2.60012566	     -4.00198248	      5.79241370	      0.87381995	      0.93282260	      0.49257259	      9.33690542	      2.57123810	    -16.81300709	     14.90200313	     14.90200313	      9.79345675	     -4.51234629	     -7.86933374	     30.05212944	     -8.35006956	      2.49274215	     41.01179657	     41.01179657	     11.91723993	    -16.99832205	     11.93542653	    -10.47859947	      6.72398843	      2.99119203	     27.76754930	    -17.74768675	     -0.15484294	     59.40747355	     45.25671695	      0.00000000	      0.00000000	     -3.90946695	     -6.36721155	     -0.89719472	     26.67102021	     46.05830196	      0.00000000	      0.00000000
     26.83335714	     -2.74688573	     -3.97045708	      6.11300096	      0.87299563	      0.93281140	      0.49256046	      8.84130576	      2.64789139	    -16.96170884	     14.42245786	     14.42245786	      9.98212042	     -4.54842837	     -7.88794952	     30.19855940	     -7.88839821	      2.61704908	     37.11930335	     37.11930335	     11.58475678	    -16.12950813	     12.11326957	    -10.46983356	      6.67045118	      2.68204829	     29.29161690	    -17.53799117	     -0.28289262	     61.27125485	     45.20606363	      0.00000000	      0.00000000	     -4.94529555	     -6.30619136	     -0.75991833	     25.97009234	     46.01499203	      0.00000000	      0.00000000
     26.84628571	     -2.86125480	     -4.08034723	      6.45131003	      0.87231862	      0.93255413	      0.49249692	      8.31881561	      2.85535311	    -17.25496827	     13.94922118	     13.94922118	     10.08415822	     -4.40025276	     -8.30158458	     30.19568278	     -7.57816703	      2.68996934	     33.06017031	     33.06017031	     10.16059288	    -15.33613221	      9.51692431	    -10.55735209	      6.77955136	      3.10293862	     29.52844638	    -18.29317760	     -0.36101065	     66.02641417	     45.06554658	      0.00000000	      0.00000000	     -5.47618547	     -6.24710288	     -0.10710023	     25.06473494	     45.87840192	      0.00000000	      0.00000000
     26.85921429	     -3.15344462	     -4.20045100	      6.78125690	      0.87152607	      0.93195450	      0.49231887	      8.12735250	      3.02431826	    -17.42564939	     13.72792340	     13.72792340	     10.32189032	     -4.51978269	     -8.35050403	     30.52409399	     -7.24826331	      2.65114684	     29.47968941	     29.47968941	      9.92796162	    -13.76584499	      9.91510853	    -10.28915010	      6.86120059	      3.10377392	     31.01492478	    -18.28941735	     -0.57535656	     67.10567539	     45.04543498	      0.00000000	      0.00000000	     -6.30731941	     -6.15895363	     -0.01686220	     24.66801335	     45.84704438	      0.00000000	      0.00000000
     26.87214286	     -3.18480915	     -4.24701255	      7.10322916	      0.87120916	      0.93169791	      0.49215168	      7.48720543	      3.17825929	    -17.68848530	     13.27013991	     13.27013991	     10.59193599	     -4.26268829	     -8.36959635	     30.36849806	     -6.96284477	      2.19349225	     25.81121653	     25.81121653	      8.97963897	    -11.78418971	      8.18112877	    -10.40544516	      6.85771279	      2.94102976	     31.76413583	    -18.15162839	     -0.77909798	     70.82910906	     44.95241949	      0.00000000	      0.00000000	     -7.32392553	     -6.27038352	      0.61648582	     24.57446389	     45.70133689	      0.00000000	      0.00000000
